<?xml version="1.0" encoding="UTF-8"?>
<!DOCTYPE svg PUBLIC "-//W3C//DTD SVG 1.1//EN" "http://www.w3.org/Graphics/SVG/1.1/DTD/svg11.dtd">
<svg xmlns="http://www.w3.org/2000/svg" version="1.1" width="512px" height="512px" style="shape-rendering:geometricPrecision; text-rendering:geometricPrecision; image-rendering:optimizeQuality; fill-rule:evenodd; clip-rule:evenodd" xmlns:xlink="http://www.w3.org/1999/xlink">
<g><path style="opacity:0.998" fill="#03afee" d="M 249.5,5.5 C 249.5,44.8333 249.5,84.1667 249.5,123.5C 238.833,123.5 228.167,123.5 217.5,123.5C 217.832,84.9964 217.499,46.663 216.5,8.5C 227.243,6.26022 238.243,5.26022 249.5,5.5 Z"/></g>
<g><path style="opacity:0.997" fill="#01abeb" d="M 249.5,5.5 C 270.268,4.54366 290.601,6.54366 310.5,11.5C 310.5,53.1667 310.5,94.8333 310.5,136.5C 295.321,129.372 279.321,125.372 262.5,124.5C 258.366,123.515 254.032,123.182 249.5,123.5C 249.5,84.1667 249.5,44.8333 249.5,5.5 Z"/></g>
<g><path style="opacity:0.997" fill="#09b2ee" d="M 216.5,8.5 C 217.499,46.663 217.832,84.9964 217.5,123.5C 205.833,123.5 194.167,123.5 182.5,123.5C 182.5,87.5 182.5,51.5 182.5,15.5C 193.635,12.2163 204.969,9.88292 216.5,8.5 Z"/></g>
<g><path style="opacity:0.998" fill="#01a7e8" d="M 310.5,11.5 C 319.237,12.7646 327.57,15.0979 335.5,18.5C 336.495,65.0947 336.828,111.761 336.5,158.5C 328.738,150.07 320.072,142.736 310.5,136.5C 310.5,94.8333 310.5,53.1667 310.5,11.5 Z"/></g>
<g><path style="opacity:0.998" fill="#00a4e6" d="M 335.5,18.5 C 347.97,21.7631 359.637,26.7631 370.5,33.5C 370.5,86.1667 370.5,138.833 370.5,191.5C 360.368,181.869 350.368,172.036 340.5,162C 339.906,161.536 339.239,161.369 338.5,161.5C 337.599,160.71 336.932,159.71 336.5,158.5C 336.828,111.761 336.495,65.0947 335.5,18.5 Z"/></g>
<g><path style="opacity:0.997" fill="#0fb6ef" d="M 182.5,15.5 C 182.5,51.5 182.5,87.5 182.5,123.5C 170.833,123.5 159.167,123.5 147.5,123.5C 147.5,92.1667 147.5,60.8333 147.5,29.5C 158.829,24.0029 170.495,19.3362 182.5,15.5 Z"/></g>
<g><path style="opacity:0.998" fill="#16b9f0" d="M 147.5,29.5 C 147.5,60.8333 147.5,92.1667 147.5,123.5C 159.167,123.5 170.833,123.5 182.5,123.5C 194.167,123.5 205.833,123.5 217.5,123.5C 228.167,123.5 238.833,123.5 249.5,123.5C 254.032,123.182 258.366,123.515 262.5,124.5C 223.167,124.5 183.833,124.5 144.5,124.5C 144.5,211.833 144.5,299.167 144.5,386.5C 145.5,387.833 146.5,389.167 147.5,390.5C 147.831,420.671 147.498,450.671 146.5,480.5C 134.171,475.343 122.838,468.676 112.5,460.5C 113.833,323.833 113.833,187.167 112.5,50.5C 123.33,42.2456 134.997,35.2456 147.5,29.5 Z"/></g>
<g><path style="opacity:0.998" fill="#009fe2" d="M 370.5,33.5 C 392.976,44.4024 412.976,58.7357 430.5,76.5C 430.832,135.002 430.499,193.336 429.5,251.5C 426.5,247.833 423.167,244.5 419.5,241.5C 412.5,233.833 405.167,226.5 397.5,219.5C 388.5,210.167 379.5,200.833 370.5,191.5C 370.5,138.833 370.5,86.1667 370.5,33.5 Z"/></g>
<g><path style="opacity:0.999" fill="#19bbf1" d="M 112.5,50.5 C 113.833,187.167 113.833,323.833 112.5,460.5C 108.268,458.6 104.601,455.933 101.5,452.5C 102.5,321.001 102.833,189.334 102.5,57.5C 105.275,54.3954 108.608,52.0621 112.5,50.5 Z"/></g>
<g><path style="opacity:0.998" fill="#1cbcf1" d="M 102.5,57.5 C 102.833,189.334 102.5,321.001 101.5,452.5C 90.3009,444.975 80.3009,435.975 71.5,425.5C 72.8319,312.264 72.8319,198.931 71.5,85.5C 80.613,74.7156 90.9463,65.3822 102.5,57.5 Z"/></g>
<g><path style="opacity:0.996" fill="#0099dd" d="M 430.5,76.5 C 488.244,134.884 512.744,205.217 504,287.5C 502.535,298.658 500.368,309.658 497.5,320.5C 493.567,314.898 488.901,309.898 483.5,305.5C 475.887,297.221 467.887,289.221 459.5,281.5C 453.403,274.947 447.07,268.614 440.5,262.5C 436.5,259.167 432.833,255.5 429.5,251.5C 430.499,193.336 430.832,135.002 430.5,76.5 Z"/></g>
<g><path style="opacity:0.997" fill="#22bff2" d="M 71.5,85.5 C 72.8319,198.931 72.8319,312.264 71.5,425.5C 57.8891,410.956 46.2224,394.956 36.5,377.5C 37.168,296.098 37.8347,214.598 38.5,133C 38.2716,132.601 37.9382,132.435 37.5,132.5C 46.6322,115.233 57.9655,99.5668 71.5,85.5 Z"/></g>
<g><path style="opacity:1" fill="#fefefe" d="M 262.5,124.5 C 279.321,125.372 295.321,129.372 310.5,136.5C 320.072,142.736 328.738,150.07 336.5,158.5C 336.932,159.71 337.599,160.71 338.5,161.5C 357.262,190.366 360.595,221.032 348.5,253.5C 341.122,269.553 329.789,282.22 314.5,291.5C 317.941,298.06 321.608,304.393 325.5,310.5C 328.772,317.754 332.439,324.754 336.5,331.5C 340.929,340.03 345.595,348.363 350.5,356.5C 353.995,364.161 357.995,371.495 362.5,378.5C 363.227,380.954 364.227,383.287 365.5,385.5C 339.005,386.498 312.339,386.831 285.5,386.5C 283.088,381.341 280.421,376.341 277.5,371.5C 272.993,361.814 267.993,352.481 262.5,343.5C 259.337,336.504 255.671,329.838 251.5,323.5C 249.245,317.823 246.578,312.323 243.5,307C 234.84,306.5 226.173,306.334 217.5,306.5C 216.502,332.995 216.169,359.661 216.5,386.5C 192.5,386.5 168.5,386.5 144.5,386.5C 144.5,299.167 144.5,211.833 144.5,124.5C 183.833,124.5 223.167,124.5 262.5,124.5 Z"/></g>
<g><path style="opacity:0.988" fill="#27c2f2" d="M 37.5,132.5 C 37.9382,132.435 38.2716,132.601 38.5,133C 37.8347,214.598 37.168,296.098 36.5,377.5C 3.69622,316.1 -3.47045,251.766 15,184.5C 20.2865,166.118 27.7865,148.784 37.5,132.5 Z"/></g>
<g><path style="opacity:1" fill="#09759f" d="M 278.5,203.5 C 278.431,206.084 277.265,208.084 275,209.5C 274.667,208.5 274.333,207.5 274,206.5C 260.965,219.368 248.131,232.368 235.5,245.5C 229.167,245.5 222.833,245.5 216.5,245.5C 216.5,226.5 216.5,207.5 216.5,188.5C 230.171,188.333 243.837,188.5 257.5,189C 266.969,190.39 273.969,195.224 278.5,203.5 Z"/></g>
<g><path style="opacity:1" fill="#067fb2" d="M 338.5,161.5 C 339.239,161.369 339.906,161.536 340.5,162C 350.368,172.036 360.368,181.869 370.5,191.5C 379.5,200.833 388.5,210.167 397.5,219.5C 394.604,223.905 391.104,227.905 387,231.5C 386.667,230.167 386.333,228.833 386,227.5C 378,235.5 370,243.5 362,251.5C 361.667,250.167 361.333,248.833 361,247.5C 357.333,251.167 353.667,254.833 350,258.5C 349.392,256.846 348.892,255.179 348.5,253.5C 360.595,221.032 357.262,190.366 338.5,161.5 Z"/></g>
<g><path style="opacity:1" fill="#0579a5" d="M 278.5,203.5 C 284.604,217.496 281.937,229.663 270.5,240C 266.46,242.427 262.126,244.094 257.5,245C 250.174,245.5 242.841,245.666 235.5,245.5C 248.131,232.368 260.965,219.368 274,206.5C 274.333,207.5 274.667,208.5 275,209.5C 277.265,208.084 278.431,206.084 278.5,203.5 Z"/></g>
<g><path style="opacity:1" fill="#0283b8" d="M 397.5,219.5 C 405.167,226.5 412.5,233.833 419.5,241.5C 417.612,244.899 415.112,247.899 412,250.5C 411.667,249.167 411.333,247.833 411,246.5C 407.333,250.167 403.667,253.833 400,257.5C 399.667,256.5 399.333,255.5 399,254.5C 395,258.5 391,262.5 387,266.5C 386.667,265.167 386.333,263.833 386,262.5C 382.333,266.167 378.667,269.833 375,273.5C 374.667,272.167 374.333,270.833 374,269.5C 370,273.5 366,277.5 362,281.5C 361.667,280.5 361.333,279.5 361,278.5C 357.333,282.167 353.667,285.833 350,289.5C 349.667,288.167 349.333,286.833 349,285.5C 340.574,293.421 332.741,301.755 325.5,310.5C 321.608,304.393 317.941,298.06 314.5,291.5C 329.789,282.22 341.122,269.553 348.5,253.5C 348.892,255.179 349.392,256.846 350,258.5C 353.667,254.833 357.333,251.167 361,247.5C 361.333,248.833 361.667,250.167 362,251.5C 370,243.5 378,235.5 386,227.5C 386.333,228.833 386.667,230.167 387,231.5C 391.104,227.905 394.604,223.905 397.5,219.5 Z"/></g>
<g><path style="opacity:1" fill="#0087be" d="M 419.5,241.5 C 423.167,244.5 426.5,247.833 429.5,251.5C 432.833,255.5 436.5,259.167 440.5,262.5C 439.969,264.544 438.802,266.211 437,267.5C 436.667,266.167 436.333,264.833 436,263.5C 432.333,267.167 428.667,270.833 425,274.5C 424.667,273.5 424.333,272.5 424,271.5C 420,275.5 416,279.5 412,283.5C 411.667,282.167 411.333,280.833 411,279.5C 407.333,283.167 403.667,286.833 400,290.5C 399.667,289.167 399.333,287.833 399,286.5C 395,290.5 391,294.5 387,298.5C 386.667,297.5 386.333,296.5 386,295.5C 382.333,299.167 378.667,302.833 375,306.5C 374.667,305.167 374.333,303.833 374,302.5C 370,306.5 366,310.5 362,314.5C 361.667,313.167 361.333,311.833 361,310.5C 357.333,314.167 353.667,317.833 350,321.5C 349.667,320.5 349.333,319.5 349,318.5C 344.63,322.702 340.463,327.036 336.5,331.5C 332.439,324.754 328.772,317.754 325.5,310.5C 332.741,301.755 340.574,293.421 349,285.5C 349.333,286.833 349.667,288.167 350,289.5C 353.667,285.833 357.333,282.167 361,278.5C 361.333,279.5 361.667,280.5 362,281.5C 366,277.5 370,273.5 374,269.5C 374.333,270.833 374.667,272.167 375,273.5C 378.667,269.833 382.333,266.167 386,262.5C 386.333,263.833 386.667,265.167 387,266.5C 391,262.5 395,258.5 399,254.5C 399.333,255.5 399.667,256.5 400,257.5C 403.667,253.833 407.333,250.167 411,246.5C 411.333,247.833 411.667,249.167 412,250.5C 415.112,247.899 417.612,244.899 419.5,241.5 Z"/></g>
<g><path style="opacity:1" fill="#008bc5" d="M 440.5,262.5 C 447.07,268.614 453.403,274.947 459.5,281.5C 456.538,284.964 453.371,288.297 450,291.5C 449.667,290.5 449.333,289.5 449,288.5C 445,292.5 441,296.5 437,300.5C 436.667,299.167 436.333,297.833 436,296.5C 432.333,300.167 428.667,303.833 425,307.5C 424.667,306.167 424.333,304.833 424,303.5C 420,307.5 416,311.5 412,315.5C 411.667,314.5 411.333,313.5 411,312.5C 407.333,316.167 403.667,319.833 400,323.5C 399.667,322.167 399.333,320.833 399,319.5C 395,323.5 391,327.5 387,331.5C 386.667,330.167 386.333,328.833 386,327.5C 382.333,331.167 378.667,334.833 375,338.5C 374.667,337.5 374.333,336.5 374,335.5C 370,339.5 366,343.5 362,347.5C 361.667,346.167 361.333,344.833 361,343.5C 357.667,346.833 354.333,350.167 351,353.5C 350.517,354.448 350.351,355.448 350.5,356.5C 345.595,348.363 340.929,340.03 336.5,331.5C 340.463,327.036 344.63,322.702 349,318.5C 349.333,319.5 349.667,320.5 350,321.5C 353.667,317.833 357.333,314.167 361,310.5C 361.333,311.833 361.667,313.167 362,314.5C 366,310.5 370,306.5 374,302.5C 374.333,303.833 374.667,305.167 375,306.5C 378.667,302.833 382.333,299.167 386,295.5C 386.333,296.5 386.667,297.5 387,298.5C 391,294.5 395,290.5 399,286.5C 399.333,287.833 399.667,289.167 400,290.5C 403.667,286.833 407.333,283.167 411,279.5C 411.333,280.833 411.667,282.167 412,283.5C 416,279.5 420,275.5 424,271.5C 424.333,272.5 424.667,273.5 425,274.5C 428.667,270.833 432.333,267.167 436,263.5C 436.333,264.833 436.667,266.167 437,267.5C 438.802,266.211 439.969,264.544 440.5,262.5 Z"/></g>
<g><path style="opacity:1" fill="#008ecb" d="M 459.5,281.5 C 467.887,289.221 475.887,297.221 483.5,305.5C 481.275,309.235 478.442,312.568 475,315.5C 474.667,314.5 474.333,313.5 474,312.5C 470,316.5 466,320.5 462,324.5C 461.667,323.167 461.333,321.833 461,320.5C 457.333,324.167 453.667,327.833 450,331.5C 449.667,330.167 449.333,328.833 449,327.5C 445,331.5 441,335.5 437,339.5C 436.667,338.5 436.333,337.5 436,336.5C 432.333,340.167 428.667,343.833 425,347.5C 424.667,346.167 424.333,344.833 424,343.5C 420,347.5 416,351.5 412,355.5C 411.667,352.833 411.333,350.167 411,347.5C 407.333,351.167 403.667,354.833 400,358.5C 399.667,357.167 399.333,355.833 399,354.5C 395,358.5 391,362.5 387,366.5C 386.667,365.167 386.333,363.833 386,362.5C 382.333,366.167 378.667,369.833 375,373.5C 374.667,371.5 374.333,369.5 374,367.5C 370.298,371.37 366.464,375.037 362.5,378.5C 357.995,371.495 353.995,364.161 350.5,356.5C 350.351,355.448 350.517,354.448 351,353.5C 354.333,350.167 357.667,346.833 361,343.5C 361.333,344.833 361.667,346.167 362,347.5C 366,343.5 370,339.5 374,335.5C 374.333,336.5 374.667,337.5 375,338.5C 378.667,334.833 382.333,331.167 386,327.5C 386.333,328.833 386.667,330.167 387,331.5C 391,327.5 395,323.5 399,319.5C 399.333,320.833 399.667,322.167 400,323.5C 403.667,319.833 407.333,316.167 411,312.5C 411.333,313.5 411.667,314.5 412,315.5C 416,311.5 420,307.5 424,303.5C 424.333,304.833 424.667,306.167 425,307.5C 428.667,303.833 432.333,300.167 436,296.5C 436.333,297.833 436.667,299.167 437,300.5C 441,296.5 445,292.5 449,288.5C 449.333,289.5 449.667,290.5 450,291.5C 453.371,288.297 456.538,284.964 459.5,281.5 Z"/></g>
<g><path style="opacity:1" fill="#0484b2" d="M 217.5,306.5 C 226.173,306.334 234.84,306.5 243.5,307C 246.578,312.323 249.245,317.823 251.5,323.5C 245.261,331.244 238.428,338.578 231,345.5C 230.667,344.167 230.333,342.833 230,341.5C 225.964,345.704 221.798,349.704 217.5,353.5C 217.5,337.833 217.5,322.167 217.5,306.5 Z"/></g>
<g><path style="opacity:0.999" fill="#0092d1" d="M 483.5,305.5 C 488.901,309.898 493.567,314.898 497.5,320.5C 496.738,324.785 495.405,328.785 493.5,332.5C 492.328,336.093 490.161,339.093 487,341.5C 486.667,340.167 486.333,338.833 486,337.5C 482.333,341.167 478.667,344.833 475,348.5C 474.667,347.167 474.333,345.833 474,344.5C 470,348.5 466,352.5 462,356.5C 461.667,355.5 461.333,354.5 461,353.5C 457.333,357.167 453.667,360.833 450,364.5C 449.667,361.5 449.333,358.5 449,355.5C 445,359.5 441,363.5 437,367.5C 436.667,366.5 436.333,365.5 436,364.5C 432.333,368.167 428.667,371.833 425,375.5C 424.667,374.167 424.333,372.833 424,371.5C 420,375.5 416,379.5 412,383.5C 411.917,381.494 411.417,380.494 410.5,380.5C 407.203,383.296 404.036,386.296 401,389.5C 400.667,388.5 400.333,387.5 400,386.5C 396.964,389.704 393.797,392.704 390.5,395.5C 390.665,392.482 390.498,389.482 390,386.5C 387,389.5 384,392.5 381,395.5C 380.667,394.5 380.333,393.5 380,392.5C 377,395.5 374,398.5 371,401.5C 370.667,398.5 370.333,395.5 370,392.5C 367,395.5 364,398.5 361,401.5C 360.667,400.5 360.333,399.5 360,398.5C 357,401.5 354,404.5 351,407.5C 350.667,406.167 350.333,404.833 350,403.5C 347,406.5 344,409.5 341,412.5C 340.667,408.833 340.333,405.167 340,401.5C 337,404.5 334,407.5 331,410.5C 330.667,409.5 330.333,408.5 330,407.5C 327,410.5 324,413.5 321,416.5C 320.667,413.5 320.333,410.5 320,407.5C 317,410.5 314,413.5 311,416.5C 310.517,415.552 310.351,414.552 310.5,413.5C 314.797,408.702 319.297,404.035 324,399.5C 324.333,400.5 324.667,401.5 325,402.5C 328.667,398.833 332.333,395.167 336,391.5C 336.333,392.833 336.667,394.167 337,395.5C 339.705,392.964 342.205,390.297 344.5,387.5C 351.863,387.831 359.197,387.497 366.5,386.5C 366.376,385.893 366.043,385.56 365.5,385.5C 364.227,383.287 363.227,380.954 362.5,378.5C 366.464,375.037 370.298,371.37 374,367.5C 374.333,369.5 374.667,371.5 375,373.5C 378.667,369.833 382.333,366.167 386,362.5C 386.333,363.833 386.667,365.167 387,366.5C 391,362.5 395,358.5 399,354.5C 399.333,355.833 399.667,357.167 400,358.5C 403.667,354.833 407.333,351.167 411,347.5C 411.333,350.167 411.667,352.833 412,355.5C 416,351.5 420,347.5 424,343.5C 424.333,344.833 424.667,346.167 425,347.5C 428.667,343.833 432.333,340.167 436,336.5C 436.333,337.5 436.667,338.5 437,339.5C 441,335.5 445,331.5 449,327.5C 449.333,328.833 449.667,330.167 450,331.5C 453.667,327.833 457.333,324.167 461,320.5C 461.333,321.833 461.667,323.167 462,324.5C 466,320.5 470,316.5 474,312.5C 474.333,313.5 474.667,314.5 475,315.5C 478.442,312.568 481.275,309.235 483.5,305.5 Z"/></g>
<g><path style="opacity:1" fill="#0488b8" d="M 251.5,323.5 C 255.671,329.838 259.337,336.504 262.5,343.5C 247.252,357.245 232.419,371.578 218,386.5C 217.5,375.505 217.333,364.505 217.5,353.5C 221.798,349.704 225.964,345.704 230,341.5C 230.333,342.833 230.667,344.167 231,345.5C 238.428,338.578 245.261,331.244 251.5,323.5 Z"/></g>
<g><path style="opacity:0.993" fill="#0094d6" d="M 493.5,332.5 C 490.853,343.122 486.853,353.122 481.5,362.5C 477.598,364.893 474.098,367.893 471,371.5C 470.667,370.167 470.333,368.833 470,367.5C 467,370.5 464,373.5 461,376.5C 460.667,373.833 460.333,371.167 460,368.5C 457,371.5 454,374.5 451,377.5C 450.667,374.5 450.333,371.5 450,368.5C 447,371.5 444,374.5 441,377.5C 440.667,376.5 440.333,375.5 440,374.5C 437,377.5 434,380.5 431,383.5C 430.667,380.5 430.333,377.5 430,374.5C 427,377.5 424,380.5 421,383.5C 420.667,382.5 420.333,381.5 420,380.5C 417,383.5 414,386.5 411,389.5C 410.502,386.518 410.335,383.518 410.5,380.5C 411.417,380.494 411.917,381.494 412,383.5C 416,379.5 420,375.5 424,371.5C 424.333,372.833 424.667,374.167 425,375.5C 428.667,371.833 432.333,368.167 436,364.5C 436.333,365.5 436.667,366.5 437,367.5C 441,363.5 445,359.5 449,355.5C 449.333,358.5 449.667,361.5 450,364.5C 453.667,360.833 457.333,357.167 461,353.5C 461.333,354.5 461.667,355.5 462,356.5C 466,352.5 470,348.5 474,344.5C 474.333,345.833 474.667,347.167 475,348.5C 478.667,344.833 482.333,341.167 486,337.5C 486.333,338.833 486.667,340.167 487,341.5C 490.161,339.093 492.328,336.093 493.5,332.5 Z"/></g>
<g><path style="opacity:1" fill="#0e8ebf" d="M 217.5,306.5 C 217.5,322.167 217.5,337.833 217.5,353.5C 217.333,364.505 217.5,375.505 218,386.5C 232.419,371.578 247.252,357.245 262.5,343.5C 267.993,352.481 272.993,361.814 277.5,371.5C 276.542,371.953 275.708,372.619 275,373.5C 274.667,372.167 274.333,370.833 274,369.5C 270,373.5 266,377.5 262,381.5C 261.667,380.5 261.333,379.5 261,378.5C 251,388.5 241,398.5 231,408.5C 230.667,407.167 230.333,405.833 230,404.5C 218.914,416.09 207.414,427.09 195.5,437.5C 190.167,432.833 185.167,427.833 180.5,422.5C 192.747,411.756 204.58,400.423 216,388.5C 216.464,387.906 216.631,387.239 216.5,386.5C 216.169,359.661 216.502,332.995 217.5,306.5 Z"/></g>
<g><path style="opacity:0.999" fill="#0099d7" d="M 481.5,362.5 C 479.26,368.65 476.26,374.316 472.5,379.5C 468.869,382.629 465.369,385.963 462,389.5C 461.667,386.833 461.333,384.167 461,381.5C 457.333,385.167 453.667,388.833 450,392.5C 449.667,391.167 449.333,389.833 449,388.5C 445,392.5 441,396.5 437,400.5C 436.667,399.5 436.333,398.5 436,397.5C 432.333,401.167 428.667,404.833 425,408.5C 424.667,407.167 424.333,405.833 424,404.5C 420,408.5 416,412.5 412,416.5C 411.667,415.167 411.333,413.833 411,412.5C 407.333,416.167 403.667,419.833 400,423.5C 399.667,422.167 399.333,420.833 399,419.5C 395,423.5 391,427.5 387,431.5C 386.667,430.5 386.333,429.5 386,428.5C 382.333,432.167 378.667,435.833 375,439.5C 374.667,438.167 374.333,436.833 374,435.5C 370,439.5 366,443.5 362,447.5C 361.667,446.167 361.333,444.833 361,443.5C 357.631,447.037 354.131,450.371 350.5,453.5C 350.649,452.448 350.483,451.448 350,450.5C 347,453.5 344,456.5 341,459.5C 340.667,458.167 340.333,456.833 340,455.5C 336.964,458.704 333.797,461.704 330.5,464.5C 330.664,461.813 330.497,459.146 330,456.5C 327,459.5 324,462.5 321,465.5C 320.667,464.167 320.333,462.833 320,461.5C 317,464.5 314,467.5 311,470.5C 310.667,469.167 310.333,467.833 310,466.5C 307,469.5 304,472.5 301,475.5C 300.667,472.833 300.333,470.167 300,467.5C 297,470.5 294,473.5 291,476.5C 290.667,475.167 290.333,473.833 290,472.5C 287,475.5 284,478.5 281,481.5C 280.667,480.5 280.333,479.5 280,478.5C 277,481.5 274,484.5 271,487.5C 270.667,484.5 270.333,481.5 270,478.5C 267,481.5 264,484.5 261,487.5C 260.667,485.5 260.333,483.5 260,481.5C 256.631,485.037 253.131,488.371 249.5,491.5C 247.833,490.5 246.5,489.167 245.5,487.5C 250.464,482.035 255.63,476.702 261,471.5C 261.333,472.833 261.667,474.167 262,475.5C 266,471.5 270,467.5 274,463.5C 274.333,464.5 274.667,465.5 275,466.5C 278.667,462.833 282.333,459.167 286,455.5C 286.333,457.5 286.667,459.5 287,461.5C 291,457.5 295,453.5 299,449.5C 299.333,450.833 299.667,452.167 300,453.5C 303.667,449.833 307.333,446.167 311,442.5C 311.333,443.833 311.667,445.167 312,446.5C 316,442.5 320,438.5 324,434.5C 324.333,435.5 324.667,436.5 325,437.5C 328.667,433.833 332.333,430.167 336,426.5C 336.333,427.833 336.667,429.167 337,430.5C 341,426.5 345,422.5 349,418.5C 349.333,419.833 349.667,421.167 350,422.5C 353.667,418.833 357.333,415.167 361,411.5C 361.333,412.5 361.667,413.5 362,414.5C 366,410.5 370,406.5 374,402.5C 374.333,403.833 374.667,405.167 375,406.5C 378.667,402.833 382.333,399.167 386,395.5C 386.604,400.219 388.104,400.219 390.5,395.5C 393.797,392.704 396.964,389.704 400,386.5C 400.333,387.5 400.667,388.5 401,389.5C 404.036,386.296 407.203,383.296 410.5,380.5C 410.335,383.518 410.502,386.518 411,389.5C 414,386.5 417,383.5 420,380.5C 420.333,381.5 420.667,382.5 421,383.5C 424,380.5 427,377.5 430,374.5C 430.333,377.5 430.667,380.5 431,383.5C 434,380.5 437,377.5 440,374.5C 440.333,375.5 440.667,376.5 441,377.5C 444,374.5 447,371.5 450,368.5C 450.333,371.5 450.667,374.5 451,377.5C 454,374.5 457,371.5 460,368.5C 460.333,371.167 460.667,373.833 461,376.5C 464,373.5 467,370.5 470,367.5C 470.333,368.833 470.667,370.167 471,371.5C 474.098,367.893 477.598,364.893 481.5,362.5 Z"/></g>
<g><path style="opacity:0.988" fill="#009adc" d="M 472.5,379.5 C 458.118,406.557 438.784,429.557 414.5,448.5C 414.062,448.565 413.728,448.399 413.5,448C 415.667,445.833 417.833,443.667 420,441.5C 420.667,438.167 420.667,434.833 420,431.5C 417,434.5 414,437.5 411,440.5C 410.667,437.833 410.333,435.167 410,432.5C 407,435.5 404,438.5 401,441.5C 400.667,440.167 400.333,438.833 400,437.5C 397,440.5 394,443.5 391,446.5C 390.667,443.833 390.333,441.167 390,438.5C 387,441.5 384,444.5 381,447.5C 380.667,446.167 380.333,444.833 380,443.5C 377,446.5 374,449.5 371,452.5C 370.667,449.833 370.333,447.167 370,444.5C 367,447.5 364,450.5 361,453.5C 360.667,452.167 360.333,450.833 360,449.5C 357,452.5 354,455.5 351,458.5C 350.506,456.866 350.34,455.199 350.5,453.5C 354.131,450.371 357.631,447.037 361,443.5C 361.333,444.833 361.667,446.167 362,447.5C 366,443.5 370,439.5 374,435.5C 374.333,436.833 374.667,438.167 375,439.5C 378.667,435.833 382.333,432.167 386,428.5C 386.333,429.5 386.667,430.5 387,431.5C 391,427.5 395,423.5 399,419.5C 399.333,420.833 399.667,422.167 400,423.5C 403.667,419.833 407.333,416.167 411,412.5C 411.333,413.833 411.667,415.167 412,416.5C 416,412.5 420,408.5 424,404.5C 424.333,405.833 424.667,407.167 425,408.5C 428.667,404.833 432.333,401.167 436,397.5C 436.333,398.5 436.667,399.5 437,400.5C 441,396.5 445,392.5 449,388.5C 449.333,389.833 449.667,391.167 450,392.5C 453.667,388.833 457.333,385.167 461,381.5C 461.333,384.167 461.667,386.833 462,389.5C 465.369,385.963 468.869,382.629 472.5,379.5 Z"/></g>
<g><path style="opacity:1" fill="#0390c4" d="M 277.5,371.5 C 280.421,376.341 283.088,381.341 285.5,386.5C 287.948,387.473 290.615,387.806 293.5,387.5C 291.539,389.963 289.372,392.297 287,394.5C 286.667,393.167 286.333,391.833 286,390.5C 282.333,394.167 278.667,397.833 275,401.5C 274.667,400.167 274.333,398.833 274,397.5C 270,401.5 266,405.5 262,409.5C 261.667,408.5 261.333,407.5 261,406.5C 251,416.5 241,426.5 231,436.5C 230.667,435.167 230.333,433.833 230,432.5C 224,438.5 218,444.5 212,450.5C 211.517,451.448 211.351,452.448 211.5,453.5C 205.833,448.5 200.5,443.167 195.5,437.5C 207.414,427.09 218.914,416.09 230,404.5C 230.333,405.833 230.667,407.167 231,408.5C 241,398.5 251,388.5 261,378.5C 261.333,379.5 261.667,380.5 262,381.5C 266,377.5 270,373.5 274,369.5C 274.333,370.833 274.667,372.167 275,373.5C 275.708,372.619 276.542,371.953 277.5,371.5 Z"/></g>
<g><path style="opacity:1" fill="#44afd9" d="M 365.5,385.5 C 366.043,385.56 366.376,385.893 366.5,386.5C 359.197,387.497 351.863,387.831 344.5,387.5C 327.5,387.5 310.5,387.5 293.5,387.5C 290.615,387.806 287.948,387.473 285.5,386.5C 312.339,386.831 339.005,386.498 365.5,385.5 Z"/></g>
<g><path style="opacity:1" fill="#0097d1" d="M 390.5,395.5 C 388.104,400.219 386.604,400.219 386,395.5C 382.333,399.167 378.667,402.833 375,406.5C 374.667,405.167 374.333,403.833 374,402.5C 370,406.5 366,410.5 362,414.5C 361.667,413.5 361.333,412.5 361,411.5C 357.333,415.167 353.667,418.833 350,422.5C 349.667,421.167 349.333,419.833 349,418.5C 345,422.5 341,426.5 337,430.5C 336.667,429.167 336.333,427.833 336,426.5C 332.333,430.167 328.667,433.833 325,437.5C 324.667,436.5 324.333,435.5 324,434.5C 320,438.5 316,442.5 312,446.5C 311.667,445.167 311.333,443.833 311,442.5C 307.333,446.167 303.667,449.833 300,453.5C 299.667,452.167 299.333,450.833 299,449.5C 295,453.5 291,457.5 287,461.5C 286.667,459.5 286.333,457.5 286,455.5C 282.333,459.167 278.667,462.833 275,466.5C 274.667,465.5 274.333,464.5 274,463.5C 270,467.5 266,471.5 262,475.5C 261.667,474.167 261.333,472.833 261,471.5C 255.63,476.702 250.464,482.035 245.5,487.5C 240.167,482.833 235.167,477.833 230.5,472.5C 241.08,463.424 251.246,453.758 261,443.5C 261.333,444.833 261.667,446.167 262,447.5C 266,443.5 270,439.5 274,435.5C 274.333,436.5 274.667,437.5 275,438.5C 278.667,434.833 282.333,431.167 286,427.5C 286.333,428.833 286.667,430.167 287,431.5C 291,427.5 295,423.5 299,419.5C 299.333,420.833 299.667,422.167 300,423.5C 303.369,419.963 306.869,416.629 310.5,413.5C 310.351,414.552 310.517,415.552 311,416.5C 314,413.5 317,410.5 320,407.5C 320.333,410.5 320.667,413.5 321,416.5C 324,413.5 327,410.5 330,407.5C 330.333,408.5 330.667,409.5 331,410.5C 334,407.5 337,404.5 340,401.5C 340.333,405.167 340.667,408.833 341,412.5C 344,409.5 347,406.5 350,403.5C 350.333,404.833 350.667,406.167 351,407.5C 354,404.5 357,401.5 360,398.5C 360.333,399.5 360.667,400.5 361,401.5C 364,398.5 367,395.5 370,392.5C 370.333,395.5 370.667,398.5 371,401.5C 374,398.5 377,395.5 380,392.5C 380.333,393.5 380.667,394.5 381,395.5C 384,392.5 387,389.5 390,386.5C 390.498,389.482 390.665,392.482 390.5,395.5 Z"/></g>
<g><path style="opacity:1" fill="#118cb9" d="M 144.5,386.5 C 168.5,386.5 192.5,386.5 216.5,386.5C 216.631,387.239 216.464,387.906 216,388.5C 204.58,400.423 192.747,411.756 180.5,422.5C 177.167,419.5 173.833,416.5 170.5,413.5C 163.167,405.5 155.5,397.833 147.5,390.5C 146.5,389.167 145.5,387.833 144.5,386.5 Z"/></g>
<g><path style="opacity:1" fill="#0094cb" d="M 293.5,387.5 C 310.5,387.5 327.5,387.5 344.5,387.5C 342.205,390.297 339.705,392.964 337,395.5C 336.667,394.167 336.333,392.833 336,391.5C 332.333,395.167 328.667,398.833 325,402.5C 324.667,401.5 324.333,400.5 324,399.5C 319.297,404.035 314.797,408.702 310.5,413.5C 306.869,416.629 303.369,419.963 300,423.5C 299.667,422.167 299.333,420.833 299,419.5C 295,423.5 291,427.5 287,431.5C 286.667,430.167 286.333,428.833 286,427.5C 282.333,431.167 278.667,434.833 275,438.5C 274.667,437.5 274.333,436.5 274,435.5C 270,439.5 266,443.5 262,447.5C 261.667,446.167 261.333,444.833 261,443.5C 251.246,453.758 241.08,463.424 230.5,472.5C 226.167,468.5 221.833,464.5 217.5,460.5C 215.5,458.167 213.5,455.833 211.5,453.5C 211.351,452.448 211.517,451.448 212,450.5C 218,444.5 224,438.5 230,432.5C 230.333,433.833 230.667,435.167 231,436.5C 241,426.5 251,416.5 261,406.5C 261.333,407.5 261.667,408.5 262,409.5C 266,405.5 270,401.5 274,397.5C 274.333,398.833 274.667,400.167 275,401.5C 278.667,397.833 282.333,394.167 286,390.5C 286.333,391.833 286.667,393.167 287,394.5C 289.372,392.297 291.539,389.963 293.5,387.5 Z"/></g>
<g><path style="opacity:0.996" fill="#10b6f0" d="M 147.5,390.5 C 155.5,397.833 163.167,405.5 170.5,413.5C 170.176,439.574 170.51,465.574 171.5,491.5C 162.674,488.787 154.341,485.12 146.5,480.5C 147.498,450.671 147.831,420.671 147.5,390.5 Z"/></g>
<g><path style="opacity:0.994" fill="#0ab3ef" d="M 170.5,413.5 C 173.833,416.5 177.167,419.5 180.5,422.5C 185.167,427.833 190.167,432.833 195.5,437.5C 200.5,443.167 205.833,448.5 211.5,453.5C 213.5,455.833 215.5,458.167 217.5,460.5C 217.829,474.677 217.496,488.677 216.5,502.5C 201.059,500.556 186.059,496.89 171.5,491.5C 170.51,465.574 170.176,439.574 170.5,413.5 Z"/></g>
<g><path style="opacity:0.995" fill="#009ede" d="M 414.5,448.5 C 377.88,479.463 335.546,497.963 287.5,504C 279.198,505.053 270.865,505.553 262.5,505.5C 262.5,505.167 262.5,504.833 262.5,504.5C 267.542,504.985 271.376,502.985 274,498.5C 274.333,499.5 274.667,500.5 275,501.5C 278.667,497.833 282.333,494.167 286,490.5C 286.333,491.833 286.667,493.167 287,494.5C 291,490.5 295,486.5 299,482.5C 299.333,483.833 299.667,485.167 300,486.5C 303.667,482.833 307.333,479.167 311,475.5C 311.333,476.5 311.667,477.5 312,478.5C 316,474.5 320,470.5 324,466.5C 324.333,467.833 324.667,469.167 325,470.5C 327.04,468.63 328.873,466.63 330.5,464.5C 333.797,461.704 336.964,458.704 340,455.5C 340.333,456.833 340.667,458.167 341,459.5C 344,456.5 347,453.5 350,450.5C 350.483,451.448 350.649,452.448 350.5,453.5C 350.34,455.199 350.506,456.866 351,458.5C 354,455.5 357,452.5 360,449.5C 360.333,450.833 360.667,452.167 361,453.5C 364,450.5 367,447.5 370,444.5C 370.333,447.167 370.667,449.833 371,452.5C 374,449.5 377,446.5 380,443.5C 380.333,444.833 380.667,446.167 381,447.5C 384,444.5 387,441.5 390,438.5C 390.333,441.167 390.667,443.833 391,446.5C 394,443.5 397,440.5 400,437.5C 400.333,438.833 400.667,440.167 401,441.5C 404,438.5 407,435.5 410,432.5C 410.333,435.167 410.667,437.833 411,440.5C 414,437.5 417,434.5 420,431.5C 420.667,434.833 420.667,438.167 420,441.5C 417.833,443.667 415.667,445.833 413.5,448C 413.728,448.399 414.062,448.565 414.5,448.5 Z"/></g>
<g><path style="opacity:1" fill="#009dd9" d="M 330.5,464.5 C 328.873,466.63 327.04,468.63 325,470.5C 324.667,469.167 324.333,467.833 324,466.5C 320,470.5 316,474.5 312,478.5C 311.667,477.5 311.333,476.5 311,475.5C 307.333,479.167 303.667,482.833 300,486.5C 299.667,485.167 299.333,483.833 299,482.5C 295,486.5 291,490.5 287,494.5C 286.667,493.167 286.333,491.833 286,490.5C 282.333,494.167 278.667,497.833 275,501.5C 274.667,500.5 274.333,499.5 274,498.5C 271.376,502.985 267.542,504.985 262.5,504.5C 257.833,500.5 253.5,496.167 249.5,491.5C 253.131,488.371 256.631,485.037 260,481.5C 260.333,483.5 260.667,485.5 261,487.5C 264,484.5 267,481.5 270,478.5C 270.333,481.5 270.667,484.5 271,487.5C 274,484.5 277,481.5 280,478.5C 280.333,479.5 280.667,480.5 281,481.5C 284,478.5 287,475.5 290,472.5C 290.333,473.833 290.667,475.167 291,476.5C 294,473.5 297,470.5 300,467.5C 300.333,470.167 300.667,472.833 301,475.5C 304,472.5 307,469.5 310,466.5C 310.333,467.833 310.667,469.167 311,470.5C 314,467.5 317,464.5 320,461.5C 320.333,462.833 320.667,464.167 321,465.5C 324,462.5 327,459.5 330,456.5C 330.497,459.146 330.664,461.813 330.5,464.5 Z"/></g>
<g><path style="opacity:0.989" fill="#03b0ee" d="M 217.5,460.5 C 221.833,464.5 226.167,468.5 230.5,472.5C 235.167,477.833 240.167,482.833 245.5,487.5C 246.5,489.167 247.833,490.5 249.5,491.5C 253.5,496.167 257.833,500.5 262.5,504.5C 262.5,504.833 262.5,505.167 262.5,505.5C 252.828,505.666 243.161,505.5 233.5,505C 227.616,504.685 221.949,503.851 216.5,502.5C 217.496,488.677 217.829,474.677 217.5,460.5 Z"/></g>
</svg>
